<svg width="231" height="100" viewBox="0 0 231 100" fill="none" xmlns="http://www.w3.org/2000/svg">
<path d="M9.30489 94.7449V95.9479H0V82.7895H9.02292V83.9926H1.39103V88.6732H8.19582V89.8575H1.39103V94.7449H9.30489Z" fill="#212243"/>
<path d="M18.5788 95.9479L15.4396 91.8124L12.2816 95.9479H10.7777L14.6877 90.8725L10.9657 86.0603H12.4695L15.4396 89.9327L18.4096 86.0603H19.8759L16.1539 90.8725L20.1014 95.9479H18.5788Z" fill="#212243"/>
<path d="M27.6814 85.9851C28.6087 85.9851 29.4483 86.1982 30.2003 86.6242C30.9522 87.0378 31.5412 87.6268 31.9672 88.3912C32.3933 89.1557 32.6064 90.0266 32.6064 91.0041C32.6064 91.9941 32.3933 92.8714 31.9672 93.6358C31.5412 94.4003 30.9522 94.9955 30.2003 95.4216C29.4609 95.8351 28.6212 96.0419 27.6814 96.0419C26.8793 96.0419 26.1525 95.879 25.5008 95.5532C24.8617 95.2148 24.3354 94.7261 23.9218 94.087V99.5947H22.5872V86.0603H23.8654V88.0153C24.2664 87.3636 24.7928 86.8624 25.4444 86.5115C26.1086 86.1606 26.8543 85.9851 27.6814 85.9851ZM27.5874 94.8577C28.2766 94.8577 28.9032 94.701 29.4671 94.3877C30.0311 94.0619 30.4697 93.6045 30.783 93.0155C31.1088 92.4265 31.2717 91.756 31.2717 91.0041C31.2717 90.2522 31.1088 89.588 30.783 89.0116C30.4697 88.4226 30.0311 87.9652 29.4671 87.6393C28.9032 87.3135 28.2766 87.1506 27.5874 87.1506C26.8856 87.1506 26.2527 87.3135 25.6888 87.6393C25.1374 87.9652 24.6988 88.4226 24.373 89.0116C24.0597 89.588 23.903 90.2522 23.903 91.0041C23.903 91.756 24.0597 92.4265 24.373 93.0155C24.6988 93.6045 25.1374 94.0619 25.6888 94.3877C26.2527 94.701 26.8856 94.8577 27.5874 94.8577Z" fill="#212243"/>
<path d="M44.2006 91.4177H35.9296C36.0048 92.4453 36.3996 93.2787 37.1139 93.9178C37.8282 94.5444 38.7305 94.8577 39.8208 94.8577C40.4348 94.8577 40.9988 94.7511 41.5126 94.5381C42.0264 94.3125 42.4713 93.9867 42.8472 93.5606L43.5991 94.4253C43.1605 94.9517 42.6091 95.3527 41.9449 95.6284C41.2933 95.9041 40.5727 96.0419 39.7832 96.0419C38.7681 96.0419 37.8658 95.8289 37.0763 95.4028C36.2993 94.9642 35.6915 94.3627 35.2529 93.5982C34.8143 92.8338 34.595 91.9691 34.595 91.0041C34.595 90.0392 34.8018 89.1745 35.2153 88.41C35.6414 87.6456 36.2179 87.0503 36.9447 86.6242C37.6841 86.1982 38.5112 85.9851 39.426 85.9851C40.3408 85.9851 41.1617 86.1982 41.8885 86.6242C42.6154 87.0503 43.1856 87.6456 43.5991 88.41C44.0127 89.1619 44.2194 90.0266 44.2194 91.0041L44.2006 91.4177ZM39.426 87.1318C38.4736 87.1318 37.6716 87.4388 37.0199 88.0529C36.3808 88.6544 36.0174 89.4439 35.9296 90.4214H42.9412C42.8535 89.4439 42.4838 88.6544 41.8321 88.0529C41.193 87.4388 40.391 87.1318 39.426 87.1318Z" fill="#212243"/>
<path d="M48.4785 87.9965C48.7918 87.3323 49.2555 86.831 49.8695 86.4927C50.4961 86.1543 51.2668 85.9851 52.1816 85.9851V87.2822L51.8621 87.2634C50.8219 87.2634 50.0074 87.5829 49.4184 88.2221C48.8294 88.8612 48.5349 89.7572 48.5349 90.9101V95.9479H47.2002V86.0603H48.4785V87.9965Z" fill="#212243"/>
<path d="M60.4916 95.3464C60.241 95.572 59.9277 95.7474 59.5517 95.8727C59.1883 95.9855 58.8061 96.0419 58.405 96.0419C57.4777 96.0419 56.7634 95.7913 56.2621 95.29C55.7608 94.7887 55.5102 94.0807 55.5102 93.1659V87.1882H53.7432V86.0603H55.5102V83.8986H56.8448V86.0603H59.8525V87.1882H56.8448V93.0907C56.8448 93.6797 56.9889 94.1308 57.2772 94.4441C57.5779 94.7449 58.004 94.8953 58.5554 94.8953C58.8311 94.8953 59.0943 94.8514 59.3449 94.7637C59.6081 94.676 59.8337 94.5506 60.0216 94.3877L60.4916 95.3464Z" fill="#212243"/>
<path d="M65.8359 96.0419C65.0339 96.0419 64.2632 95.9291 63.5238 95.7036C62.7969 95.4655 62.2267 95.171 61.8132 94.8201L62.4147 93.7674C62.8283 94.0932 63.3483 94.3627 63.9749 94.5757C64.6015 94.7762 65.2532 94.8765 65.9299 94.8765C66.8322 94.8765 67.4964 94.7386 67.9225 94.4629C68.3611 94.1747 68.5804 93.7737 68.5804 93.2599C68.5804 92.8964 68.4613 92.6145 68.2232 92.414C67.9851 92.2009 67.6843 92.0443 67.3209 91.944C66.9575 91.8312 66.475 91.7247 65.8735 91.6245C65.0715 91.4741 64.4261 91.3237 63.9373 91.1733C63.4486 91.0104 63.0288 90.741 62.6779 90.365C62.3395 89.989 62.1703 89.469 62.1703 88.8048C62.1703 87.9777 62.515 87.301 63.2042 86.7746C63.8935 86.2483 64.8521 85.9851 66.0803 85.9851C66.7194 85.9851 67.3585 86.0728 67.9976 86.2483C68.6368 86.4112 69.1631 86.6305 69.5767 86.9062L68.9939 87.9777C68.1794 87.4138 67.2081 87.1318 66.0803 87.1318C65.2281 87.1318 64.5827 87.2822 64.1441 87.5829C63.718 87.8837 63.505 88.2785 63.505 88.7672C63.505 89.1431 63.624 89.4439 63.8621 89.6695C64.1128 89.8951 64.4198 90.0642 64.7832 90.177C65.1466 90.2773 65.6479 90.3838 66.287 90.4966C67.0766 90.647 67.7094 90.7973 68.1856 90.9477C68.6618 91.0981 69.0691 91.355 69.4075 91.7184C69.7458 92.0819 69.915 92.5831 69.915 93.2223C69.915 94.087 69.5516 94.7762 68.8247 95.29C68.1104 95.7913 67.1141 96.0419 65.8359 96.0419Z" fill="#212243"/>
<path d="M82.8683 85.9851C84.109 85.9851 85.0927 86.3485 85.8196 87.0754C86.559 87.7897 86.9286 88.8361 86.9286 90.2146V95.9479H85.594V90.3462C85.594 89.3186 85.3371 88.5354 84.8233 87.9965C84.3095 87.4576 83.5764 87.1882 82.624 87.1882C81.5588 87.1882 80.7129 87.5077 80.0863 88.1469C79.4722 88.7735 79.1652 89.6444 79.1652 90.7598V95.9479H77.8305V82H79.1652V87.7897C79.5286 87.2132 80.0299 86.7684 80.669 86.4551C81.3081 86.1418 82.0412 85.9851 82.8683 85.9851Z" fill="#212243"/>
<path d="M98.9413 86.0603L93.9975 97.1322C93.5965 98.0596 93.1328 98.7175 92.6065 99.106C92.0801 99.4944 91.4473 99.6887 90.7079 99.6887C90.2317 99.6887 89.7868 99.6135 89.3733 99.4631C88.9597 99.3127 88.6026 99.0872 88.3018 98.7864L88.9221 97.7901C89.4234 98.2914 90.0249 98.542 90.7267 98.542C91.1778 98.542 91.5601 98.4167 91.8734 98.1661C92.1992 97.9154 92.4999 97.4894 92.7757 96.8878L93.208 95.9291L88.7905 86.0603H90.1816L93.9035 94.4629L97.6255 86.0603H98.9413Z" fill="#212243"/>
<path d="M106.179 85.9851C107.107 85.9851 107.946 86.1982 108.698 86.6242C109.45 87.0378 110.039 87.6268 110.465 88.3912C110.891 89.1557 111.104 90.0266 111.104 91.0041C111.104 91.9941 110.891 92.8714 110.465 93.6358C110.039 94.4003 109.45 94.9955 108.698 95.4216C107.959 95.8351 107.119 96.0419 106.179 96.0419C105.377 96.0419 104.65 95.879 103.999 95.5532C103.36 95.2148 102.833 94.7261 102.42 94.087V99.5947H101.085V86.0603H102.363V88.0153C102.764 87.3636 103.291 86.8624 103.942 86.5115C104.607 86.1606 105.352 85.9851 106.179 85.9851ZM106.085 94.8577C106.775 94.8577 107.401 94.701 107.965 94.3877C108.529 94.0619 108.968 93.6045 109.281 93.0155C109.607 92.4265 109.77 91.756 109.77 91.0041C109.77 90.2522 109.607 89.588 109.281 89.0116C108.968 88.4226 108.529 87.9652 107.965 87.6393C107.401 87.3135 106.775 87.1506 106.085 87.1506C105.384 87.1506 104.751 87.3135 104.187 87.6393C103.635 87.9652 103.197 88.4226 102.871 89.0116C102.558 89.588 102.401 90.2522 102.401 91.0041C102.401 91.756 102.558 92.4265 102.871 93.0155C103.197 93.6045 103.635 94.0619 104.187 94.3877C104.751 94.701 105.384 94.8577 106.085 94.8577Z" fill="#212243"/>
<path d="M118.131 96.0419C117.178 96.0419 116.32 95.8289 115.555 95.4028C114.791 94.9642 114.19 94.3627 113.751 93.5982C113.312 92.8338 113.093 91.9691 113.093 91.0041C113.093 90.0392 113.312 89.1745 113.751 88.41C114.19 87.6456 114.791 87.0503 115.555 86.6242C116.32 86.1982 117.178 85.9851 118.131 85.9851C119.083 85.9851 119.942 86.1982 120.706 86.6242C121.471 87.0503 122.066 87.6456 122.492 88.41C122.93 89.1745 123.15 90.0392 123.15 91.0041C123.15 91.9691 122.93 92.8338 122.492 93.5982C122.066 94.3627 121.471 94.9642 120.706 95.4028C119.942 95.8289 119.083 96.0419 118.131 96.0419ZM118.131 94.8577C118.833 94.8577 119.459 94.701 120.011 94.3877C120.574 94.0619 121.013 93.6045 121.326 93.0155C121.64 92.4265 121.796 91.756 121.796 91.0041C121.796 90.2522 121.64 89.5818 121.326 88.9928C121.013 88.4038 120.574 87.9526 120.011 87.6393C119.459 87.3135 118.833 87.1506 118.131 87.1506C117.429 87.1506 116.796 87.3135 116.232 87.6393C115.681 87.9526 115.242 88.4038 114.916 88.9928C114.603 89.5818 114.446 90.2522 114.446 91.0041C114.446 91.756 114.603 92.4265 114.916 93.0155C115.242 93.6045 115.681 94.0619 116.232 94.3877C116.796 94.701 117.429 94.8577 118.131 94.8577Z" fill="#212243"/>
<path d="M131.346 95.3464C131.095 95.572 130.782 95.7474 130.406 95.8727C130.042 95.9855 129.66 96.0419 129.259 96.0419C128.332 96.0419 127.618 95.7913 127.116 95.29C126.615 94.7887 126.364 94.0807 126.364 93.1659V87.1882H124.597V86.0603H126.364V83.8986H127.699V86.0603H130.707V87.1882H127.699V93.0907C127.699 93.6797 127.843 94.1308 128.131 94.4441C128.432 94.7449 128.858 94.8953 129.41 94.8953C129.685 94.8953 129.948 94.8514 130.199 94.7637C130.462 94.676 130.688 94.5506 130.876 94.3877L131.346 95.3464Z" fill="#212243"/>
<path d="M139.077 85.9851C140.318 85.9851 141.302 86.3485 142.029 87.0754C142.768 87.7897 143.138 88.8361 143.138 90.2146V95.9479H141.803V90.3462C141.803 89.3186 141.546 88.5354 141.032 87.9965C140.519 87.4576 139.785 87.1882 138.833 87.1882C137.768 87.1882 136.922 87.5077 136.295 88.1469C135.681 88.7735 135.374 89.6444 135.374 90.7598V95.9479H134.04V82H135.374V87.7897C135.738 87.2132 136.239 86.7684 136.878 86.4551C137.517 86.1418 138.25 85.9851 139.077 85.9851Z" fill="#212243"/>
<path d="M155.671 91.4177H147.4C147.476 92.4453 147.87 93.2787 148.585 93.9178C149.299 94.5444 150.201 94.8577 151.292 94.8577C151.906 94.8577 152.47 94.7511 152.983 94.5381C153.497 94.3125 153.942 93.9867 154.318 93.5606L155.07 94.4253C154.631 94.9517 154.08 95.3527 153.416 95.6284C152.764 95.9041 152.043 96.0419 151.254 96.0419C150.239 96.0419 149.337 95.8289 148.547 95.4028C147.77 94.9642 147.162 94.3627 146.724 93.5982C146.285 92.8338 146.066 91.9691 146.066 91.0041C146.066 90.0392 146.273 89.1745 146.686 88.41C147.112 87.6456 147.689 87.0503 148.416 86.6242C149.155 86.1982 149.982 85.9851 150.897 85.9851C151.812 85.9851 152.632 86.1982 153.359 86.6242C154.086 87.0503 154.656 87.6456 155.07 88.41C155.483 89.1619 155.69 90.0266 155.69 91.0041L155.671 91.4177ZM150.897 87.1318C149.944 87.1318 149.142 87.4388 148.491 88.0529C147.852 88.6544 147.488 89.4439 147.4 90.4214H154.412C154.324 89.4439 153.955 88.6544 153.303 88.0529C152.664 87.4388 151.862 87.1318 150.897 87.1318ZM152.25 82.188H154.036L150.991 84.5189H149.675L152.25 82.188Z" fill="#212243"/>
<path d="M162.769 96.0419C161.791 96.0419 160.914 95.8289 160.137 95.4028C159.373 94.9767 158.771 94.3815 158.333 93.617C157.894 92.84 157.675 91.9691 157.675 91.0041C157.675 90.0392 157.894 89.1745 158.333 88.41C158.771 87.6456 159.373 87.0503 160.137 86.6242C160.914 86.1982 161.791 85.9851 162.769 85.9851C163.621 85.9851 164.379 86.1543 165.043 86.4927C165.72 86.8185 166.253 87.301 166.641 87.9401L165.645 88.6168C165.319 88.1281 164.906 87.7646 164.404 87.5265C163.903 87.2759 163.358 87.1506 162.769 87.1506C162.055 87.1506 161.409 87.3135 160.833 87.6393C160.269 87.9526 159.824 88.4038 159.498 88.9928C159.185 89.5818 159.028 90.2522 159.028 91.0041C159.028 91.7686 159.185 92.4453 159.498 93.0343C159.824 93.6107 160.269 94.0619 160.833 94.3877C161.409 94.701 162.055 94.8577 162.769 94.8577C163.358 94.8577 163.903 94.7386 164.404 94.5005C164.906 94.2624 165.319 93.899 165.645 93.4102L166.641 94.087C166.253 94.7261 165.72 95.2148 165.043 95.5532C164.367 95.879 163.609 96.0419 162.769 96.0419Z" fill="#212243"/>
<path d="M172.986 85.9851C174.277 85.9851 175.267 86.311 175.956 86.9626C176.645 87.6017 176.99 88.5542 176.99 89.8199V95.9479H175.712V94.4065C175.411 94.9203 174.966 95.3213 174.377 95.6096C173.801 95.8978 173.111 96.0419 172.309 96.0419C171.207 96.0419 170.329 95.7788 169.678 95.2524C169.026 94.7261 168.7 94.0306 168.7 93.1659C168.7 92.3262 169.001 91.6495 169.603 91.1357C170.217 90.6219 171.188 90.365 172.516 90.365H175.655V89.7635C175.655 88.9113 175.417 88.2659 174.941 87.8273C174.465 87.3762 173.769 87.1506 172.855 87.1506C172.228 87.1506 171.626 87.2571 171.05 87.4701C170.473 87.6707 169.978 87.9526 169.565 88.316L168.963 87.3198C169.465 86.8937 170.066 86.5679 170.768 86.3423C171.47 86.1042 172.209 85.9851 172.986 85.9851ZM172.516 94.9893C173.268 94.9893 173.913 94.8201 174.452 94.4817C174.991 94.1308 175.392 93.6295 175.655 92.9779V91.3613H172.554C170.862 91.3613 170.016 91.9503 170.016 93.1283C170.016 93.7047 170.235 94.1621 170.674 94.5005C171.113 94.8263 171.727 94.9893 172.516 94.9893Z" fill="#212243"/>
<path d="M180.879 86.0603H182.214V95.9479H180.879V86.0603ZM181.556 83.8986C181.28 83.8986 181.048 83.8046 180.861 83.6166C180.673 83.4286 180.579 83.2031 180.579 82.9399C180.579 82.6893 180.673 82.4699 180.861 82.282C181.048 82.094 181.28 82 181.556 82C181.832 82 182.064 82.094 182.252 82.282C182.44 82.4574 182.534 82.6705 182.534 82.9211C182.534 83.1968 182.44 83.4286 182.252 83.6166C182.064 83.8046 181.832 83.8986 181.556 83.8986Z" fill="#212243"/>
<path d="M187.47 87.9965C187.783 87.3323 188.247 86.831 188.861 86.4927C189.488 86.1543 190.258 85.9851 191.173 85.9851V87.2822L190.854 87.2634C189.813 87.2634 188.999 87.5829 188.41 88.2221C187.821 88.8612 187.526 89.7572 187.526 90.9101V95.9479H186.192V86.0603H187.47V87.9965Z" fill="#212243"/>
<path d="M202.372 91.4177H194.1C194.176 92.4453 194.57 93.2787 195.285 93.9178C195.999 94.5444 196.901 94.8577 197.992 94.8577C198.606 94.8577 199.17 94.7511 199.683 94.5381C200.197 94.3125 200.642 93.9867 201.018 93.5606L201.77 94.4253C201.331 94.9517 200.78 95.3527 200.116 95.6284C199.464 95.9041 198.744 96.0419 197.954 96.0419C196.939 96.0419 196.037 95.8289 195.247 95.4028C194.47 94.9642 193.862 94.3627 193.424 93.5982C192.985 92.8338 192.766 91.9691 192.766 91.0041C192.766 90.0392 192.973 89.1745 193.386 88.41C193.812 87.6456 194.389 87.0503 195.116 86.6242C195.855 86.1982 196.682 85.9851 197.597 85.9851C198.512 85.9851 199.333 86.1982 200.059 86.6242C200.786 87.0503 201.356 87.6456 201.77 88.41C202.184 89.1619 202.39 90.0266 202.39 91.0041L202.372 91.4177ZM197.597 87.1318C196.644 87.1318 195.842 87.4388 195.191 88.0529C194.552 88.6544 194.188 89.4439 194.1 90.4214H201.112C201.024 89.4439 200.655 88.6544 200.003 88.0529C199.364 87.4388 198.562 87.1318 197.597 87.1318Z" fill="#212243"/>
<path d="M208.022 96.0419C207.22 96.0419 206.449 95.9291 205.709 95.7036C204.983 95.4655 204.412 95.171 203.999 94.8201L204.6 93.7674C205.014 94.0932 205.534 94.3627 206.161 94.5757C206.787 94.7762 207.439 94.8765 208.116 94.8765C209.018 94.8765 209.682 94.7386 210.108 94.4629C210.547 94.1747 210.766 93.7737 210.766 93.2599C210.766 92.8964 210.647 92.6145 210.409 92.414C210.171 92.2009 209.87 92.0443 209.507 91.944C209.143 91.8312 208.661 91.7247 208.059 91.6245C207.257 91.4741 206.612 91.3237 206.123 91.1733C205.634 91.0104 205.214 90.741 204.864 90.365C204.525 89.989 204.356 89.469 204.356 88.8048C204.356 87.9777 204.701 87.301 205.39 86.7746C206.079 86.2483 207.038 85.9851 208.266 85.9851C208.905 85.9851 209.544 86.0728 210.183 86.2483C210.822 86.4112 211.349 86.6305 211.762 86.9062L211.18 87.9777C210.365 87.4138 209.394 87.1318 208.266 87.1318C207.414 87.1318 206.768 87.2822 206.33 87.5829C205.904 87.8837 205.691 88.2785 205.691 88.7672C205.691 89.1431 205.81 89.4439 206.048 89.6695C206.298 89.8951 206.605 90.0642 206.969 90.177C207.332 90.2773 207.834 90.3838 208.473 90.4966C209.262 90.647 209.895 90.7973 210.371 90.9477C210.848 91.0981 211.255 91.355 211.593 91.7184C211.932 92.0819 212.101 92.5831 212.101 93.2223C212.101 94.087 211.737 94.7762 211.01 95.29C210.296 95.7913 209.3 96.0419 208.022 96.0419Z" fill="#212243"/>
<path d="M28.9168 14.4818C26.0502 14.3768 23.1966 14.9176 20.5663 16.0643C17.936 17.2109 15.596 18.9344 13.7187 21.1075H12.711L10.9621 15.0281H0V66.1306H14.0556V42.0831C13.8699 39.9241 14.139 37.7502 14.8455 35.7021C15.552 33.654 16.6802 31.7776 18.1569 30.1943C19.2713 29.1786 20.5766 28.3958 21.9966 27.8915C23.4166 27.3872 24.9226 27.1717 26.4267 27.2575C31.8756 27.5306 34.4974 32.1676 34.2279 40.9906V66.1981H48.4183V38.4618C48.7076 32.3554 47.035 26.317 43.6463 21.2333C41.901 19.0187 39.6553 17.2516 37.0942 16.0777C34.5332 14.9038 31.7303 14.3568 28.9168 14.4818" fill="#212243"/>
<path d="M65.3681 33.748C66.2493 31.585 67.7595 29.7375 69.7024 28.4459C71.6454 27.1543 73.9313 26.4782 76.2628 26.5055C78.4774 26.3783 80.6663 27.0334 82.4483 28.3568C84.2303 29.6803 85.4925 31.5881 86.0151 33.748H65.3681ZM75.8585 14.4817C69.3562 14.4152 63.0838 16.8898 58.3724 21.3805C55.9035 23.8311 53.9616 26.7623 52.6663 29.9934C51.371 33.2245 50.7497 36.6872 50.8408 40.168C50.7676 43.7134 51.4021 47.2378 52.707 50.5341C54.012 53.8305 55.961 56.8324 58.4398 59.3637C63.1928 64.0419 69.6003 66.6456 76.2628 66.6062C81.2454 66.6723 86.1246 65.1813 90.2224 62.3406C94.3201 59.4999 97.4327 55.4506 99.1274 50.7555L99.3969 50.0037H85.9477L85.8129 50.2093C84.7066 51.5257 83.3116 52.5683 81.7368 53.2555C80.1621 53.9427 78.4501 54.2561 76.7345 54.1712C73.9197 54.3046 71.148 53.4392 68.9071 51.7272C66.6662 50.0152 65.0996 47.5662 64.4829 44.8112H100.202L100.27 44.3324C100.811 40.3681 100.523 36.3343 99.423 32.4878C98.323 28.6413 96.4355 25.0665 93.8806 21.9912C91.5462 19.5747 88.7433 17.662 85.644 16.3706C82.5448 15.0792 79.2148 14.4364 75.8585 14.4817" fill="#212243"/>
<path d="M175.458 52.5356C173.797 53.5068 171.929 54.0685 170.009 54.1744C169.266 54.2143 168.524 54.1027 167.826 53.8464C167.128 53.5901 166.489 53.1944 165.948 52.6833C165.408 52.1722 164.976 51.5564 164.68 50.8731C164.384 50.1899 164.23 49.4536 164.226 48.7088V26.8494H176.664V15.0374H164.223V0H151.242V10.52C151.307 11.2182 151.221 11.9223 150.99 12.5842C150.759 13.2461 150.388 13.8503 149.903 14.3558C149.418 14.8613 148.83 15.2562 148.179 15.5136C147.528 15.771 146.829 15.8849 146.13 15.8475H140.681V26.5057C138.461 19.2632 131.187 14.4144 121.918 14.4144C117.195 14.3068 112.552 15.6415 108.604 18.2412C106.709 19.5023 105.16 21.2206 104.101 23.2379C103.042 25.2553 102.506 27.5071 102.542 29.7863C102.542 41.2637 114.849 43.995 120.699 45.2931L121.238 45.4312C124.607 46.2506 127.627 47.2081 127.627 50.4856C127.627 52.0569 126.886 54.7207 121.979 54.7207C121.047 54.8283 120.103 54.7457 119.203 54.478C118.303 54.2102 117.467 53.7628 116.745 53.1627C116.022 52.5626 115.428 51.8222 114.999 50.9861C114.569 50.15 114.313 49.2355 114.246 48.2976L114.178 47.8188H101.008V48.3651C101.62 59.0232 110.356 66.4713 122.258 66.4713C133.625 66.4713 141.291 59.8456 141.291 49.9394C141.291 39.0081 132.347 36.1296 123.202 34.1594C119.832 33.475 116.206 32.5206 116.206 29.7187C116.206 28.0094 117.618 26.0361 121.587 26.0361C126.565 26.0361 127.774 28.973 128.044 30.2036L128.111 30.6148H141.227L141.159 30.0011C141.092 28.8421 140.886 27.6954 140.547 26.5854H150.366V49.2673C150.384 51.6033 150.874 53.9114 151.806 56.0526C152.739 58.1937 154.094 60.1237 155.79 61.726C157.487 63.3284 159.49 64.57 161.678 65.376C163.866 66.182 166.195 66.5358 168.523 66.416C172.967 66.5556 177.296 64.9916 180.628 62.0429L180.897 61.7698L175.718 52.0017L175.458 52.5356Z" fill="#212243"/>
<path d="M205.433 47.5235C206.977 47.5235 208.486 47.0657 209.77 46.2079C211.054 45.3501 212.054 44.1309 212.645 42.7045C213.236 41.278 213.39 39.7084 213.089 38.1941C212.788 36.6798 212.044 35.2889 210.953 34.1971C209.861 33.1054 208.47 32.3619 206.956 32.0606C205.442 31.7594 203.872 31.914 202.446 32.5049C201.019 33.0957 199.8 34.0963 198.943 35.3801C198.085 36.6638 197.627 38.1731 197.627 39.7171C197.627 41.7875 198.449 43.7731 199.913 45.2371C201.377 46.7011 203.363 47.5235 205.433 47.5235V47.5235Z" fill="white"/>
<path d="M205.433 26.6807C201.961 26.7017 198.638 28.0874 196.179 30.5385C194.972 31.7418 194.016 33.173 193.367 34.7491C192.718 36.3251 192.388 38.0145 192.398 39.7189V39.7189C192.388 41.4235 192.718 43.113 193.367 44.6891C194.016 46.2652 194.972 47.6965 196.179 48.8999C198.638 51.3506 201.962 52.7354 205.433 52.7552C208.904 52.7351 212.228 51.3503 214.687 48.8999C215.894 47.6967 216.85 46.2653 217.499 44.6892C218.148 43.113 218.478 41.4235 218.468 39.7189V39.7189C218.485 38.016 218.161 36.3269 217.514 34.7514C216.865 33.1704 215.908 31.7342 214.7 30.5262C213.484 29.3121 212.042 28.3489 210.455 27.6914C208.863 27.0317 207.157 26.6891 205.433 26.6827V26.6807ZM213.213 39.7174C213.224 40.7363 213.032 41.747 212.646 42.6901C212.26 43.6333 211.69 44.4897 210.968 45.209C210.243 45.934 209.381 46.5088 208.433 46.9004C207.482 47.2948 206.462 47.4978 205.432 47.4978C204.403 47.4978 203.383 47.2948 202.432 46.9004C201.483 46.5091 200.622 45.9343 199.896 45.209C199.174 44.4876 198.603 43.6295 198.216 42.6849C197.832 41.7435 197.64 40.7344 197.652 39.7174V39.7174C197.64 38.7003 197.832 37.691 198.216 36.7494C198.603 35.8048 199.174 34.9467 199.896 34.2254C200.622 33.5001 201.483 32.9253 202.432 32.534C203.383 32.1409 204.403 31.9377 205.432 31.936V31.936C207.5 31.9596 209.477 32.7899 210.942 34.2498C211.662 34.967 212.233 35.8191 212.622 36.7574C213.012 37.6956 213.212 38.7015 213.212 39.7174H213.213Z" fill="#FFCE09"/>
<path d="M225.994 39.7168C226.008 37.0285 225.488 34.3641 224.464 31.8784C223.44 29.3928 221.932 27.1355 220.028 25.2377C216.173 21.3819 210.923 19.1941 205.433 19.1548C199.943 19.1931 194.692 21.3809 190.837 25.2367C188.932 27.1345 187.425 29.392 186.401 31.8779C185.377 34.3637 184.857 37.0284 184.872 39.7168V39.7168C184.858 42.4053 185.377 45.0698 186.402 47.5556C187.426 50.0413 188.934 52.2987 190.838 54.1965C194.693 58.0523 199.943 60.2401 205.433 60.2789C210.908 60.2473 216.151 58.0628 220.029 54.1975C221.933 52.2996 223.441 50.042 224.465 47.5561C225.489 45.0701 226.009 42.4054 225.994 39.7168ZM205.432 55.0746C201.343 55.0513 197.427 53.4202 194.53 50.5336C191.677 47.6571 190.076 43.7697 190.076 39.7181C190.076 35.6665 191.677 31.7791 194.53 28.9026C197.427 26.0163 201.343 24.3852 205.432 24.3616V24.3616C209.522 24.3852 213.438 26.0163 216.334 28.9026C217.757 30.3203 218.883 32.0067 219.648 33.8637C220.413 35.7206 220.801 37.7111 220.789 39.7194C220.8 41.7276 220.413 43.7181 219.648 45.5751C218.883 47.432 217.757 49.1184 216.334 50.5362C213.438 53.4227 209.522 55.0539 205.432 55.0772V55.0746Z" fill="#3F68B1"/>
<path d="M220.815 39.717C220.827 37.7057 220.438 35.7122 219.672 33.8525C218.906 31.9927 217.778 30.3038 216.353 28.8839C213.453 25.9926 209.531 24.3582 205.435 24.3337C201.34 24.3582 197.418 25.9926 194.517 28.8839C191.659 31.7649 190.055 35.6589 190.055 39.7173C190.055 43.7757 191.659 47.6696 194.517 50.5506C197.418 53.4418 201.34 55.076 205.435 55.1003C209.531 55.076 213.452 53.4418 216.353 50.5506C217.778 49.1307 218.906 47.4417 219.672 45.5818C220.438 43.722 220.827 41.7284 220.815 39.717ZM218.443 39.717C218.452 41.4183 218.123 43.1044 217.475 44.6774C216.827 46.2504 215.872 47.6788 214.667 48.8796C212.214 51.3252 208.897 52.7074 205.433 52.7277C201.969 52.7074 198.652 51.3252 196.198 48.8796C194.993 47.6789 194.038 46.2505 193.39 44.6775C192.742 43.1045 192.413 41.4183 192.423 39.717C192.413 38.0157 192.742 36.3296 193.39 34.7566C194.039 33.1837 194.993 31.7552 196.198 30.5544C198.652 28.1092 201.969 26.7271 205.433 26.7063C208.893 26.7385 212.203 28.1246 214.655 30.5677C215.858 31.7674 216.813 33.1935 217.463 34.7638C218.113 36.3341 218.446 38.0175 218.443 39.717Z" fill="#F04C44"/>
<path d="M230.942 39.717C230.988 32.9979 228.326 26.5359 223.544 21.7515C218.761 16.9671 212.246 14.2512 205.432 14.2058C198.619 14.2533 192.105 16.9677 187.319 21.7515C182.534 26.5354 179.875 32.9979 179.922 39.717C179.876 46.4367 182.537 52.8987 187.319 57.6826C192.102 62.4664 198.617 65.1829 205.432 65.2283C208.805 65.2166 212.144 64.546 215.261 63.2542C218.366 61.9681 221.189 60.0834 223.567 57.7076C225.933 55.3437 227.806 52.533 229.077 49.4389C230.341 46.3553 230.976 43.0497 230.942 39.717H230.942ZM205.432 19.1805C210.888 19.2404 216.105 21.4304 219.969 25.2833C221.87 27.1754 223.379 29.4247 224.409 31.9019C225.439 34.379 225.969 37.0352 225.969 39.7178C225.969 42.4004 225.439 45.0566 224.409 47.5338C223.379 50.0109 221.87 52.2602 219.969 54.1523C216.105 58.0047 210.889 60.1944 205.433 60.2541V60.2541C199.977 60.1942 194.761 58.0044 190.897 54.1518C188.995 52.2596 187.487 50.0103 186.457 47.5332C185.428 45.056 184.897 42.3999 184.897 39.7173C184.897 37.0347 185.428 34.3786 186.457 31.9014C187.487 29.4243 188.995 27.175 190.897 25.2828C194.761 21.4307 199.977 19.2409 205.433 19.1805H205.432Z" fill="#212144"/>
</svg>
