<svg width="231" height="101" viewBox="0 0 231 101" fill="none" xmlns="http://www.w3.org/2000/svg">
<path d="M31.2402 14.2323C28.4066 14.1291 25.5858 14.6605 22.9858 15.7875C20.3858 16.9144 18.0727 18.6082 16.217 20.7439H15.2209L13.4922 14.7691H2.65625V64.9926H16.5501V41.3587C16.3665 39.2369 16.6325 37.1004 17.3309 35.0875C18.0292 33.0747 19.1444 31.2305 20.6041 29.6745C21.7057 28.6763 22.996 27.9069 24.3996 27.4113C25.8032 26.9157 27.2919 26.7038 28.7787 26.7881C34.1649 27.0566 36.7565 31.6138 36.4901 40.285V65.0589H50.5171V37.7998C50.8031 31.7984 49.1498 25.8638 45.8001 20.8676C44.0749 18.6911 41.855 16.9544 39.3234 15.8007C36.7919 14.647 34.0213 14.1094 31.2402 14.2323" fill="#212243"/>
<path d="M67.2672 33.1678C68.1382 31.0419 69.631 29.2263 71.5516 27.9569C73.4722 26.6875 75.7317 26.023 78.0365 26.0498C80.2255 25.9248 82.3892 26.5687 84.1507 27.8694C85.9122 29.17 87.1599 31.045 87.6764 33.1678H67.2672ZM77.6368 14.2329C71.2093 14.1675 65.0092 16.5996 60.352 21.013C57.9116 23.4215 55.992 26.3022 54.7116 29.4778C53.4312 32.6533 52.8171 36.0564 52.9071 39.4774C52.8347 42.9618 53.4619 46.4255 54.7518 49.6652C56.0417 52.9048 57.9684 55.8551 60.4186 58.3428C65.1169 62.9406 71.4506 65.4995 78.0365 65.4607C82.9616 65.5257 87.7847 64.0604 91.8353 61.2686C95.8858 58.4767 98.9626 54.497 100.638 49.8828L100.904 49.1438H87.6098L87.4766 49.3459C86.383 50.6397 85.0041 51.6643 83.4474 52.3397C81.8908 53.0151 80.1985 53.3231 78.5027 53.2397C75.7203 53.3708 72.9805 52.5203 70.7654 50.8377C68.5503 49.1551 67.0017 46.7483 66.3922 44.0407H101.7L101.767 43.5702C102.302 39.674 102.017 35.7096 100.93 31.9292C99.8427 28.1489 97.9768 24.6356 95.4514 21.6132C93.1439 19.2383 90.3732 17.3584 87.3097 16.0893C84.2461 14.8201 80.9544 14.1884 77.6368 14.2329" fill="#212243"/>
<path d="M176.093 51.632C174.451 52.5864 172.605 53.1384 170.706 53.2426C169.973 53.2818 169.239 53.1721 168.549 52.9202C167.859 52.6683 167.227 52.2794 166.693 51.7771C166.158 51.2748 165.732 50.6695 165.439 49.9981C165.146 49.3266 164.994 48.6029 164.99 47.8709V26.3875H177.285V14.7787H164.987V0H152.156V10.3391C152.22 11.0253 152.135 11.7172 151.907 12.3677C151.678 13.0182 151.312 13.6121 150.832 14.1089C150.353 14.6057 149.772 14.9938 149.128 15.2468C148.484 15.4998 147.794 15.6117 147.103 15.5749H141.717V26.0497C139.522 18.9318 132.331 14.1664 123.17 14.1664C118.501 14.0607 113.911 15.3725 110.008 17.9275C108.135 19.1669 106.605 20.8556 105.558 22.8382C104.511 24.8209 103.981 27.0339 104.017 29.2739C104.017 40.554 116.182 43.2383 121.965 44.5141L122.497 44.6498C125.828 45.4551 128.813 46.3961 128.813 49.6172C128.813 51.1615 128.08 53.7794 123.23 53.7794C122.308 53.8852 121.375 53.804 120.486 53.5409C119.596 53.2778 118.77 52.8381 118.055 52.2483C117.341 51.6585 116.754 50.9309 116.33 50.1091C115.905 49.2874 115.652 48.3886 115.585 47.4668L115.519 46.9963H102.5V47.5331C103.105 58.0079 111.74 65.3279 123.506 65.3279C134.741 65.3279 142.319 58.8162 142.319 49.0804C142.319 38.3372 133.479 35.5081 124.438 33.5718C121.108 32.8992 117.523 31.9612 117.523 29.2075C117.523 27.5276 118.919 25.5883 122.843 25.5883C127.762 25.5883 128.958 28.4746 129.225 29.6841L129.291 30.0882H142.256L142.189 29.485C142.123 28.346 141.919 27.219 141.584 26.1281H151.29V48.4199C151.308 50.7156 151.792 52.9841 152.714 55.0884C153.635 57.1928 154.975 59.0895 156.652 60.6643C158.329 62.2391 160.308 63.4593 162.472 64.2515C164.635 65.0437 166.936 65.3914 169.238 65.2736C173.63 65.4108 177.91 63.8737 181.203 60.9757L181.47 60.7073L176.35 51.1072L176.093 51.632Z" fill="#212243"/>
<path d="M205.477 48.865C210.31 48.865 214.228 44.909 214.228 40.0291C214.228 35.1491 210.31 31.1931 205.477 31.1931C200.644 31.1931 196.727 35.1491 196.727 40.0291C196.727 44.909 200.644 48.865 205.477 48.865Z" fill="white"/>
<path d="M226.478 39.6785C226.514 34.0935 224.323 28.7225 220.386 24.7463C216.449 20.77 211.088 18.5138 205.481 18.4736V18.4736C199.875 18.513 194.513 20.7689 190.576 24.7454C186.638 28.7218 184.448 34.0932 184.485 39.6785V39.6785C184.448 45.2636 186.64 50.6345 190.577 54.6107C194.514 58.587 199.875 60.8432 205.481 60.8834V60.8834C211.088 60.844 216.45 58.5881 220.387 54.6117C224.324 50.6352 226.515 45.2638 226.478 39.6785ZM205.481 55.5651C201.281 55.5356 197.264 53.8454 194.315 50.8663C191.365 47.8871 189.724 43.8629 189.752 39.6785C189.724 35.4941 191.365 31.4699 194.315 28.4908C197.264 25.5116 201.281 23.8214 205.481 23.7919V23.7919C209.682 23.8214 213.699 25.5116 216.648 28.4908C219.598 31.4699 221.239 35.4941 221.211 39.6785V39.6785C221.239 43.8629 219.598 47.8871 216.648 50.8663C213.699 53.8454 209.682 55.5356 205.481 55.5651V55.5651Z" fill="#3D67B1"/>
<path d="M221.209 39.6793C221.238 35.495 219.596 31.4707 216.647 28.4916C213.697 25.5124 209.68 23.8222 205.48 23.7927V23.7927C201.279 23.8222 197.263 25.5124 194.313 28.4916C191.363 31.4707 189.722 35.495 189.75 39.6793C189.722 43.8637 191.363 47.8879 194.313 50.8671C197.263 53.8462 201.279 55.5364 205.48 55.5659V55.5659C209.68 55.5364 213.697 53.8462 216.647 50.8671C219.596 47.8879 221.238 43.8637 221.209 39.6793V39.6793ZM218.612 39.6793C218.635 43.1724 217.265 46.5317 214.802 49.0186C212.34 51.5055 208.986 52.9163 205.48 52.9409V52.9409C201.973 52.9163 198.62 51.5055 196.158 49.0186C193.695 46.5317 192.325 43.1724 192.348 39.6793V39.6793C192.325 36.1862 193.695 32.8269 196.158 30.34C198.62 27.8532 201.973 26.4423 205.48 26.4177V26.4177C208.982 26.4546 212.328 27.8693 214.788 30.3535C217.248 32.8377 218.623 36.1899 218.612 39.6793V39.6793Z" fill="#F04A43"/>
<path d="M205.478 26.3928C201.946 26.4176 198.568 27.8388 196.088 30.3438C193.607 32.8489 192.227 36.2328 192.25 39.7515V39.7515C192.227 43.2701 193.607 46.654 196.088 49.1591C198.568 51.6641 201.946 53.0853 205.478 53.1101V53.1101C209.01 53.0853 212.388 51.6641 214.869 49.1591C217.349 46.654 218.73 43.2701 218.706 39.7515V39.7515C218.724 38.0076 218.395 36.2775 217.738 34.6608C217.082 33.0441 216.111 31.5726 214.882 30.331C213.652 29.0895 212.189 28.1024 210.575 27.4265C208.961 26.7506 207.229 26.3993 205.478 26.3928V26.3928ZM213.401 39.6827C213.413 40.7278 213.218 41.7651 212.826 42.7345C212.434 43.7039 211.852 44.5862 211.116 45.3303C210.379 46.0745 209.501 46.6657 208.534 47.0697C207.566 47.4737 206.527 47.6826 205.478 47.6841C204.429 47.6826 203.391 47.4737 202.423 47.0697C201.455 46.6657 200.578 46.0745 199.841 45.3303C199.104 44.5862 198.523 43.7039 198.131 42.7345C197.738 41.7651 197.543 40.7278 197.556 39.6827V39.6827C197.543 38.6376 197.738 37.6003 198.131 36.6309C198.523 35.6615 199.104 34.7792 199.841 34.035C200.578 33.2909 201.455 32.6997 202.423 32.2957C203.391 31.8917 204.429 31.6828 205.478 31.6813V31.6813C207.59 31.7076 209.607 32.5625 211.09 34.0605C212.573 35.5585 213.403 37.5787 213.401 39.6827V39.6827Z" fill="#FFCD05"/>
<path d="M230.935 39.6795C230.981 32.9066 228.325 26.3928 223.55 21.5706C218.776 16.7483 212.274 14.0124 205.476 13.9646V13.9646C198.677 14.0124 192.175 16.7483 187.401 21.5706C182.627 26.3928 179.97 32.9066 180.016 39.6795V39.6795C179.97 46.4525 182.627 52.9663 187.401 57.7885C192.175 62.6108 198.677 65.3467 205.476 65.3945V65.3945C208.845 65.3819 212.179 64.7056 215.286 63.4045C218.392 62.1034 221.209 60.2032 223.575 57.8132C225.942 55.4232 227.81 52.5907 229.073 49.4786C230.336 46.3664 230.969 43.0362 230.935 39.6795V39.6795ZM205.476 19.0678C210.92 19.1334 216.119 21.334 219.946 25.1926C223.773 29.0512 225.919 34.2569 225.919 39.6811C225.919 45.1052 223.773 50.3109 219.946 54.1695C216.119 58.0281 210.92 60.2287 205.476 60.2943V60.2943C200.031 60.2287 194.832 58.0281 191.005 54.1695C187.178 50.3109 185.032 45.1052 185.032 39.6811C185.032 34.2569 187.178 29.0512 191.005 25.1926C194.832 21.334 200.031 19.1334 205.476 19.0678Z" fill="#212243"/>
<path d="M16.0921 81.5831V94.5371H14.7782V84.1739L9.68908 92.8901H9.04138L3.9523 84.2294V94.5371H2.63839V81.5831H3.76724L9.39299 91.1876L14.9632 81.5831H16.0921ZM24.2741 94.6296C23.3365 94.6296 22.4914 94.4199 21.7388 94.0004C20.9862 93.5686 20.394 92.9765 19.9622 92.2239C19.5304 91.4713 19.3145 90.6201 19.3145 89.6701C19.3145 88.7201 19.5304 87.8689 19.9622 87.1163C20.394 86.3637 20.9862 85.7777 21.7388 85.3583C22.4914 84.9388 23.3365 84.7291 24.2741 84.7291C25.2117 84.7291 26.0568 84.9388 26.8094 85.3583C27.5619 85.7777 28.148 86.3637 28.5674 87.1163C28.9992 87.8689 29.2151 88.7201 29.2151 89.6701C29.2151 90.6201 28.9992 91.4713 28.5674 92.2239C28.148 92.9765 27.5619 93.5686 26.8094 94.0004C26.0568 94.4199 25.2117 94.6296 24.2741 94.6296ZM24.2741 93.4638C24.965 93.4638 25.5818 93.3096 26.1247 93.0011C26.6798 92.6804 27.1116 92.2301 27.4201 91.6502C27.7285 91.0704 27.8827 90.4103 27.8827 89.6701C27.8827 88.9299 27.7285 88.2698 27.4201 87.69C27.1116 87.1101 26.6798 86.666 26.1247 86.3576C25.5818 86.0368 24.965 85.8764 24.2741 85.8764C23.5832 85.8764 22.9602 86.0368 22.405 86.3576C21.8622 86.666 21.4304 87.1101 21.1096 87.69C20.8012 88.2698 20.647 88.9299 20.647 89.6701C20.647 90.4103 20.8012 91.0704 21.1096 91.6502C21.4304 92.2301 21.8622 92.6804 22.405 93.0011C22.9602 93.3096 23.5832 93.4638 24.2741 93.4638ZM33.4161 86.7092C33.7245 86.0553 34.181 85.5618 34.7855 85.2287C35.4024 84.8956 36.1611 84.7291 37.0617 84.7291V86.006L36.7471 85.9875C35.7231 85.9875 34.9212 86.3021 34.3414 86.9312C33.7615 87.5604 33.4716 88.4426 33.4716 89.5776V94.5371H32.1577V84.8031H33.4161V86.7092ZM45.2426 93.9449C44.9958 94.167 44.6874 94.3397 44.3173 94.4631C43.9595 94.5741 43.5832 94.6296 43.1884 94.6296C42.2755 94.6296 41.5723 94.3829 41.0788 93.8894C40.5853 93.3959 40.3386 92.6989 40.3386 91.7983V85.9134H38.599V84.8031H40.3386V82.6749H41.6525V84.8031H44.6134V85.9134H41.6525V91.7242C41.6525 92.3041 41.7944 92.7482 42.0781 93.0566C42.3742 93.3527 42.7937 93.5008 43.3365 93.5008C43.6079 93.5008 43.867 93.4576 44.1137 93.3712C44.3728 93.2849 44.5949 93.1615 44.7799 93.0011L45.2426 93.9449ZM56.5635 84.8031V93.3527C56.5635 95.0059 56.1564 96.2273 55.3421 97.0169C54.5402 97.8188 53.325 98.2198 51.6965 98.2198C50.7959 98.2198 49.9384 98.084 49.1242 97.8126C48.3223 97.5535 47.6684 97.1896 47.1626 96.7208L47.8288 95.7215C48.2976 96.1409 48.8651 96.4679 49.5313 96.7023C50.2099 96.9367 50.9192 97.0539 51.6595 97.0539C52.8932 97.0539 53.8 96.764 54.3798 96.1841C54.9597 95.6166 55.2496 94.7283 55.2496 93.5193V92.2794C54.8425 92.8963 54.3058 93.3651 53.6396 93.6858C52.9857 94.0066 52.2578 94.167 51.4559 94.167C50.543 94.167 49.7102 93.9696 48.9576 93.5748C48.2174 93.1677 47.6314 92.6063 47.1996 91.8908C46.7801 91.1629 46.5704 90.3425 46.5704 89.4295C46.5704 88.5166 46.7801 87.7023 47.1996 86.9868C47.6314 86.2712 48.2174 85.716 48.9576 85.3212C49.6979 84.9265 50.5306 84.7291 51.4559 84.7291C52.2825 84.7291 53.0289 84.8956 53.6951 85.2287C54.3613 85.5618 54.898 86.043 55.3051 86.6722V84.8031H56.5635ZM51.5855 93.0011C52.2887 93.0011 52.924 92.8531 53.4915 92.557C54.0591 92.2486 54.497 91.8229 54.8055 91.2801C55.1262 90.7373 55.2866 90.1204 55.2866 89.4295C55.2866 88.7386 55.1262 88.128 54.8055 87.5975C54.497 87.0546 54.0591 86.6352 53.4915 86.3391C52.9364 86.0306 52.301 85.8764 51.5855 85.8764C50.8822 85.8764 50.2469 86.0245 49.6794 86.3206C49.1242 86.6167 48.6862 87.0361 48.3655 87.5789C48.057 88.1218 47.9028 88.7386 47.9028 89.4295C47.9028 90.1204 48.057 90.7373 48.3655 91.2801C48.6862 91.8229 49.1242 92.2486 49.6794 92.557C50.2469 92.8531 50.8822 93.0011 51.5855 93.0011ZM63.9029 84.7291C65.1737 84.7291 66.1483 85.0498 66.8268 85.6914C67.5054 86.3206 67.8447 87.2582 67.8447 88.5042V94.5371H66.5863V93.0196C66.2902 93.5255 65.8522 93.9203 65.2724 94.204C64.7048 94.4878 64.0263 94.6296 63.2367 94.6296C62.1511 94.6296 61.2874 94.3706 60.6459 93.8524C60.0044 93.3342 59.6836 92.6495 59.6836 91.7983C59.6836 90.9717 59.9797 90.3055 60.5719 89.7996C61.1764 89.2938 62.1325 89.0409 63.4403 89.0409H66.5307V88.4487C66.5307 87.6098 66.2963 86.9744 65.8275 86.5426C65.3587 86.0985 64.674 85.8764 63.7734 85.8764C63.1565 85.8764 62.5643 85.9813 61.9968 86.191C61.4293 86.3884 60.942 86.666 60.5349 87.0238L59.9427 86.043C60.4362 85.6235 61.0284 85.3027 61.7192 85.0807C62.4101 84.8463 63.138 84.7291 63.9029 84.7291ZM63.4403 93.5933C64.1805 93.5933 64.8159 93.4268 65.3464 93.0937C65.8769 92.7482 66.2717 92.2547 66.5307 91.6132V90.0217H63.4773C61.8118 90.0217 60.979 90.6016 60.979 91.7612C60.979 92.3288 61.1949 92.7791 61.6267 93.1122C62.0585 93.4329 62.663 93.5933 63.4403 93.5933ZM80.7219 84.8031V93.3527C80.7219 95.0059 80.3148 96.2273 79.5006 97.0169C78.6986 97.8188 77.4834 98.2198 75.8549 98.2198C74.9543 98.2198 74.0969 98.084 73.2826 97.8126C72.4807 97.5535 71.8268 97.1896 71.321 96.7208L71.9872 95.7215C72.456 96.1409 73.0235 96.4679 73.6897 96.7023C74.3683 96.9367 75.0777 97.0539 75.8179 97.0539C77.0516 97.0539 77.9584 96.764 78.5383 96.1841C79.1181 95.6166 79.408 94.7283 79.408 93.5193V92.2794C79.0009 92.8963 78.4642 93.3651 77.798 93.6858C77.1442 94.0066 76.4163 94.167 75.6143 94.167C74.7014 94.167 73.8686 93.9696 73.1161 93.5748C72.3758 93.1677 71.7898 92.6063 71.358 91.8908C70.9386 91.1629 70.7288 90.3425 70.7288 89.4295C70.7288 88.5166 70.9386 87.7023 71.358 86.9868C71.7898 86.2712 72.3758 85.716 73.1161 85.3212C73.8563 84.9265 74.6891 84.7291 75.6143 84.7291C76.4409 84.7291 77.1873 84.8956 77.8535 85.2287C78.5197 85.5618 79.0564 86.043 79.4635 86.6722V84.8031H80.7219ZM75.7439 93.0011C76.4471 93.0011 77.0825 92.8531 77.65 92.557C78.2175 92.2486 78.6555 91.8229 78.9639 91.2801C79.2846 90.7373 79.445 90.1204 79.445 89.4295C79.445 88.7386 79.2846 88.128 78.9639 87.5975C78.6555 87.0546 78.2175 86.6352 77.65 86.3391C77.0948 86.0306 76.4594 85.8764 75.7439 85.8764C75.0407 85.8764 74.4053 86.0245 73.8378 86.3206C73.2826 86.6167 72.8447 87.0361 72.5239 87.5789C72.2155 88.1218 72.0612 88.7386 72.0612 89.4295C72.0612 90.1204 72.2155 90.7373 72.5239 91.2801C72.8447 91.8229 73.2826 92.2486 73.8378 92.557C74.4053 92.8531 75.0407 93.0011 75.7439 93.0011ZM93.1319 90.0772H84.9894C85.0634 91.0889 85.452 91.9093 86.1553 92.5385C86.8585 93.1553 87.7468 93.4638 88.8201 93.4638C89.4246 93.4638 89.9798 93.3589 90.4856 93.1492C90.9914 92.9271 91.4294 92.6063 91.7995 92.1869L92.5397 93.0381C92.1079 93.5563 91.5651 93.9511 90.9112 94.2225C90.2697 94.4939 89.5603 94.6296 88.7831 94.6296C87.7838 94.6296 86.8955 94.4199 86.1183 94.0004C85.3534 93.5686 84.755 92.9765 84.3232 92.2239C83.8914 91.4713 83.6755 90.6201 83.6755 89.6701C83.6755 88.7201 83.8791 87.8689 84.2862 87.1163C84.7057 86.3637 85.2732 85.7777 85.9887 85.3583C86.7166 84.9388 87.5309 84.7291 88.4315 84.7291C89.3321 84.7291 90.1402 84.9388 90.8557 85.3583C91.5713 85.7777 92.1326 86.3637 92.5397 87.1163C92.9469 87.8565 93.1504 88.7078 93.1504 89.6701L93.1319 90.0772ZM88.4315 85.8579C87.4939 85.8579 86.7043 86.1602 86.0627 86.7647C85.4335 87.3569 85.0758 88.1341 84.9894 89.0964H91.892C91.8057 88.1341 91.4417 87.3569 90.8002 86.7647C90.171 86.1602 89.3814 85.8579 88.4315 85.8579ZM110.626 93.3527V94.5371H101.466V81.5831H110.349V82.7675H102.835V87.3754H109.534V88.5412H102.835V93.3527H110.626ZM119.756 94.5371L116.666 90.4658L113.557 94.5371H112.076L115.925 89.5406L112.261 84.8031H113.742L116.666 88.6153L119.59 84.8031H121.033L117.369 89.5406L121.255 94.5371H119.756ZM128.717 84.7291C129.63 84.7291 130.457 84.9388 131.197 85.3583C131.937 85.7654 132.517 86.3452 132.937 87.0978C133.356 87.8504 133.566 88.7078 133.566 89.6701C133.566 90.6447 133.356 91.5083 132.937 92.2609C132.517 93.0135 131.937 93.5995 131.197 94.0189C130.469 94.4261 129.643 94.6296 128.717 94.6296C127.928 94.6296 127.212 94.4693 126.571 94.1485C125.941 93.8154 125.423 93.3342 125.016 92.705V98.1272H123.702V84.8031H124.961V86.7277C125.355 86.0862 125.874 85.5927 126.515 85.2472C127.169 84.9018 127.903 84.7291 128.717 84.7291ZM128.625 93.4638C129.303 93.4638 129.92 93.3096 130.475 93.0011C131.03 92.6804 131.462 92.2301 131.771 91.6502C132.091 91.0704 132.252 90.4103 132.252 89.6701C132.252 88.9299 132.091 88.276 131.771 87.7085C131.462 87.1286 131.03 86.6783 130.475 86.3576C129.92 86.0368 129.303 85.8764 128.625 85.8764C127.934 85.8764 127.311 86.0368 126.756 86.3576C126.213 86.6783 125.781 87.1286 125.46 87.7085C125.152 88.276 124.998 88.9299 124.998 89.6701C124.998 90.4103 125.152 91.0704 125.46 91.6502C125.781 92.2301 126.213 92.6804 126.756 93.0011C127.311 93.3096 127.934 93.4638 128.625 93.4638ZM144.98 90.0772H136.837C136.911 91.0889 137.3 91.9093 138.003 92.5385C138.706 93.1553 139.595 93.4638 140.668 93.4638C141.273 93.4638 141.828 93.3589 142.334 93.1492C142.839 92.9271 143.277 92.6063 143.648 92.1869L144.388 93.0381C143.956 93.5563 143.413 93.9511 142.759 94.2225C142.118 94.4939 141.408 94.6296 140.631 94.6296C139.632 94.6296 138.744 94.4199 137.966 94.0004C137.201 93.5686 136.603 92.9765 136.171 92.2239C135.739 91.4713 135.524 90.6201 135.524 89.6701C135.524 88.7201 135.727 87.8689 136.134 87.1163C136.554 86.3637 137.121 85.7777 137.837 85.3583C138.565 84.9388 139.379 84.7291 140.279 84.7291C141.18 84.7291 141.988 84.9388 142.704 85.3583C143.419 85.7777 143.981 86.3637 144.388 87.1163C144.795 87.8565 144.998 88.7078 144.998 89.6701L144.98 90.0772ZM140.279 85.8579C139.342 85.8579 138.552 86.1602 137.911 86.7647C137.282 87.3569 136.924 88.1341 136.837 89.0964H143.74C143.654 88.1341 143.29 87.3569 142.648 86.7647C142.019 86.1602 141.229 85.8579 140.279 85.8579ZM149.191 86.7092C149.5 86.0553 149.956 85.5618 150.561 85.2287C151.178 84.8956 151.936 84.7291 152.837 84.7291V86.006L152.522 85.9875C151.498 85.9875 150.696 86.3021 150.117 86.9312C149.537 87.5604 149.247 88.4426 149.247 89.5776V94.5371H147.933V84.8031H149.191V86.7092ZM161.018 93.9449C160.771 94.167 160.463 94.3397 160.093 94.4631C159.735 94.5741 159.358 94.6296 158.964 94.6296C158.051 94.6296 157.348 94.3829 156.854 93.8894C156.361 93.3959 156.114 92.6989 156.114 91.7983V85.9134H154.374V84.8031H156.114V82.6749H157.428V84.8031H160.389V85.9134H157.428V91.7242C157.428 92.3041 157.57 92.7482 157.853 93.0566C158.149 93.3527 158.569 93.5008 159.112 93.5008C159.383 93.5008 159.642 93.4576 159.889 93.3712C160.148 93.2849 160.37 93.1615 160.555 93.0011L161.018 93.9449ZM166.279 94.6296C165.49 94.6296 164.731 94.5186 164.003 94.2965C163.287 94.0621 162.726 93.7722 162.319 93.4268L162.911 92.3904C163.318 92.7112 163.83 92.9765 164.447 93.1862C165.064 93.3836 165.705 93.4823 166.372 93.4823C167.26 93.4823 167.914 93.3466 168.333 93.0752C168.765 92.7914 168.981 92.3966 168.981 91.8908C168.981 91.533 168.864 91.2554 168.629 91.058C168.395 90.8483 168.099 90.6941 167.741 90.5954C167.383 90.4844 166.908 90.3795 166.316 90.2808C165.527 90.1327 164.891 89.9847 164.41 89.8367C163.929 89.6763 163.516 89.411 163.17 89.0409C162.837 88.6708 162.67 88.1588 162.67 87.5049C162.67 86.6907 163.01 86.0245 163.688 85.5063C164.367 84.9881 165.311 84.7291 166.52 84.7291C167.149 84.7291 167.778 84.8154 168.407 84.9881C169.036 85.1485 169.555 85.3644 169.962 85.6358L169.388 86.6907C168.586 86.1355 167.63 85.8579 166.52 85.8579C165.681 85.8579 165.045 86.006 164.614 86.3021C164.194 86.5981 163.984 86.9868 163.984 87.4679C163.984 87.838 164.102 88.1341 164.336 88.3562C164.583 88.5783 164.885 88.7448 165.243 88.8558C165.601 88.9545 166.094 89.0594 166.723 89.1704C167.5 89.3185 168.124 89.4665 168.592 89.6146C169.061 89.7626 169.462 90.0155 169.795 90.3733C170.128 90.7311 170.295 91.2246 170.295 91.8538C170.295 92.705 169.937 93.3836 169.222 93.8894C168.518 94.3829 167.537 94.6296 166.279 94.6296Z" fill="#212243"/>
</svg>
